<mxfile host="app.diagrams.net" agent="Mozilla/5.0 (X11; Linux x86_64) AppleWebKit/537.36 (KHTML, like Gecko) Chrome/138.0.0.0 Safari/537.36" version="28.2.0">
  <diagram id="h6gSj_Vb-r_N2v3dZlI" name="Monitor de Temperatura">
    <mxGraphModel dx="1188" dy="633" grid="1" gridSize="10" guides="1" tooltips="1" connect="1" arrows="1" fold="1" page="1" pageScale="1" pageWidth="850" pageHeight="1100" math="0" shadow="0">
      <root>
        <mxCell id="0" />
        <mxCell id="1" parent="0" />
        <mxCell id="2" value="LiFePO4 4S" style="rounded=1;whiteSpace=wrap;html=1;fillColor=#d5e8d4;strokeColor=#82b366;" parent="1" vertex="1">
          <mxGeometry x="130" y="300" width="120" height="60" as="geometry" />
        </mxCell>
        <mxCell id="3" value="LM2596" style="rounded=1;whiteSpace=wrap;html=1;fillColor=#f8cecc;strokeColor=#b85450;" parent="1" vertex="1">
          <mxGeometry x="370" y="320" width="100" height="60" as="geometry" />
        </mxCell>
        <mxCell id="4" value="ESP32" style="rounded=1;whiteSpace=wrap;html=1;fillColor=#dae8fc;strokeColor=#6c8ebf;" parent="1" vertex="1">
          <mxGeometry x="540" y="380" width="120" height="60" as="geometry" />
        </mxCell>
        <mxCell id="5" value="DS18B20" style="rounded=1;whiteSpace=wrap;html=1;fillColor=#e1d5e7;strokeColor=#9673a6;" parent="1" vertex="1">
          <mxGeometry x="550" y="180" width="100" height="60" as="geometry" />
        </mxCell>
        <mxCell id="6" value="Driver de Display&lt;br&gt;(MAX7219)" style="rounded=1;whiteSpace=wrap;html=1;fillColor=#fff2cc;strokeColor=#d6b656;" parent="1" vertex="1">
          <mxGeometry x="780" y="380" width="120" height="60" as="geometry" />
        </mxCell>
        <mxCell id="7" value="Display 7-Seg&lt;br&gt;5631AS-1" style="rounded=1;whiteSpace=wrap;html=1;fillColor=#fff2cc;strokeColor=#d6b656;" parent="1" vertex="1">
          <mxGeometry x="780" y="220" width="120" height="60" as="geometry" />
        </mxCell>
        <mxCell id="8" value="Buzzer" style="rounded=1;whiteSpace=wrap;html=1;fillColor=#f8cecc;strokeColor=#b85450;" parent="1" vertex="1">
          <mxGeometry x="360" y="600" width="100" height="60" as="geometry" />
        </mxCell>
        <mxCell id="9" value="BOTÃO" style="rounded=1;whiteSpace=wrap;html=1;fillColor=#e1d5e7;strokeColor=#9673a6;" parent="1" vertex="1">
          <mxGeometry x="510" y="610" width="120" height="60" as="geometry" />
        </mxCell>
        <mxCell id="10" value="12.8V (Entrada)" style="edgeStyle=orthogonalEdgeStyle;html=1;endArrow=block;endFill=0;rounded=0;startArrow=oval;startFill=0;" parent="1" source="2" target="3" edge="1">
          <mxGeometry relative="1" as="geometry">
            <Array as="points">
              <mxPoint x="270" y="350" />
              <mxPoint x="270" y="350" />
            </Array>
          </mxGeometry>
        </mxCell>
        <mxCell id="11" value="VIN 5V" style="edgeStyle=orthogonalEdgeStyle;html=1;endArrow=block;endFill=0;rounded=0;startArrow=oval;startFill=0;" parent="1" source="3" target="4" edge="1">
          <mxGeometry relative="1" as="geometry">
            <Array as="points">
              <mxPoint x="500" y="410" />
            </Array>
          </mxGeometry>
        </mxCell>
        <mxCell id="12" value="3.3V (Alimentação)" style="edgeStyle=orthogonalEdgeStyle;html=1;endArrow=block;endFill=0;rounded=0;startArrow=oval;startFill=0;exitX=0.177;exitY=-0.027;exitDx=0;exitDy=0;exitPerimeter=0;" parent="1" source="4" target="5" edge="1">
          <mxGeometry relative="1" as="geometry">
            <Array as="points">
              <mxPoint x="560" y="378" />
            </Array>
          </mxGeometry>
        </mxCell>
        <mxCell id="13" value="GPIO25 (Dados)" style="edgeStyle=orthogonalEdgeStyle;html=1;endArrow=block;endFill=0;rounded=0;startArrow=oval;startFill=0;exitX=0.75;exitY=1;exitDx=0;exitDy=0;" parent="1" source="5" target="4" edge="1">
          <mxGeometry x="0.4286" y="35" relative="1" as="geometry">
            <Array as="points">
              <mxPoint x="625" y="370" />
              <mxPoint x="625" y="370" />
            </Array>
            <mxPoint as="offset" />
          </mxGeometry>
        </mxCell>
        <mxCell id="14" value="SPI (Controle)" style="edgeStyle=orthogonalEdgeStyle;html=1;endArrow=block;endFill=0;rounded=0;startArrow=oval;startFill=0;" parent="1" source="4" target="6" edge="1">
          <mxGeometry relative="1" as="geometry">
            <Array as="points">
              <mxPoint x="720" y="410" />
            </Array>
          </mxGeometry>
        </mxCell>
        <mxCell id="15" value="Dados dos Segmentos" style="edgeStyle=orthogonalEdgeStyle;html=1;endArrow=block;endFill=0;rounded=0;startArrow=oval;startFill=0;" parent="1" source="6" target="7" edge="1">
          <mxGeometry relative="1" as="geometry">
            <Array as="points">
              <mxPoint x="840" y="350" />
            </Array>
          </mxGeometry>
        </mxCell>
        <mxCell id="16" value="GPIO12 (PWM)" style="edgeStyle=orthogonalEdgeStyle;html=1;endArrow=block;endFill=0;rounded=0;startArrow=oval;startFill=0;" parent="1" source="4" target="8" edge="1">
          <mxGeometry x="0.2414" y="10" relative="1" as="geometry">
            <Array as="points">
              <mxPoint x="420" y="430" />
            </Array>
            <mxPoint as="offset" />
          </mxGeometry>
        </mxCell>
        <mxCell id="17" value="GPIO/ADC IN 1 (Leitura)" style="edgeStyle=orthogonalEdgeStyle;html=1;endArrow=block;endFill=0;rounded=0;startArrow=oval;startFill=0;" parent="1" source="9" target="4" edge="1">
          <mxGeometry relative="1" as="geometry">
            <Array as="points">
              <mxPoint x="560" y="600" />
              <mxPoint x="560" y="600" />
            </Array>
          </mxGeometry>
        </mxCell>
        <mxCell id="18" value="3.3V (Alimentação)" style="edgeStyle=orthogonalEdgeStyle;html=1;endArrow=block;endFill=0;rounded=0;startArrow=oval;startFill=0;entryX=0.5;entryY=1;entryDx=0;entryDy=0;" parent="1" source="4" edge="1" target="6">
          <mxGeometry relative="1" as="geometry">
            <mxPoint x="600" y="470" as="sourcePoint" />
            <mxPoint x="840" y="340" as="targetPoint" />
            <Array as="points">
              <mxPoint x="600" y="500" />
              <mxPoint x="840" y="500" />
            </Array>
          </mxGeometry>
        </mxCell>
      </root>
    </mxGraphModel>
  </diagram>
</mxfile>
